<?xml version="1.0" standalone="no"?>
<!DOCTYPE svg PUBLIC "-//W3C//DTD SVG 20010904//EN"
 "http://www.w3.org/TR/2001/REC-SVG-20010904/DTD/svg10.dtd">
<svg version="1.0" xmlns="http://www.w3.org/2000/svg"
 width="1280.000000pt" height="727.000000pt" viewBox="0 0 1280.000000 727.000000"
 preserveAspectRatio="xMidYMid meet">
<metadata>
Created by potrace 1.15, written by Peter Selinger 2001-2017
</metadata>
<g transform="translate(0.000000,727.000000) scale(0.100000,-0.100000)"
fill="#000000" stroke="none">
<path d="M6320 7178 c-78 -118 -181 -327 -219 -445 -94 -289 -93 -525 4 -756
4 -10 -30 6 -91 45 -288 181 -495 249 -670 219 -130 -23 -204 -72 -251 -168
-65 -134 -14 -355 114 -494 98 -106 192 -123 273 -51 l41 37 -21 49 c-27 60
-21 103 21 151 42 48 107 70 204 70 125 0 213 -41 276 -128 25 -35 29 -48 24
-77 -10 -54 -57 -133 -162 -275 -168 -228 -171 -277 -15 -262 118 11 243 78
297 160 16 25 32 46 35 46 3 1 24 -48 48 -107 l42 -108 -24 -124 c-144 -744
-375 -1322 -663 -1655 -135 -156 -326 -283 -483 -319 -362 -85 -795 171 -1220
719 l-81 105 6 87 c3 49 8 103 11 121 l5 33 35 -26 c83 -63 202 -88 317 -66
84 15 111 31 115 65 5 37 -27 70 -148 154 -284 196 -320 241 -275 348 50 120
186 204 331 206 111 1 164 -46 164 -146 0 -61 1 -63 35 -79 137 -65 262 54
295 280 26 185 -42 353 -167 414 -100 48 -272 24 -413 -58 -80 -47 -301 -265
-380 -375 -30 -43 -57 -78 -60 -78 -3 0 -5 51 -5 113 -1 277 -134 546 -408
826 -119 122 -259 235 -268 218 -13 -23 -58 -210 -73 -307 -66 -404 8 -765
201 -980 27 -30 40 -51 29 -47 -43 17 -219 57 -309 72 -115 18 -292 21 -362 5
-69 -15 -181 -71 -232 -115 -150 -128 -120 -365 67 -539 143 -132 289 -153
363 -54 37 50 41 72 16 94 -12 10 -30 37 -40 60 -31 69 -2 137 87 200 92 66
251 82 339 36 86 -46 90 -52 89 -139 -1 -65 -10 -105 -53 -238 -78 -239 -83
-293 -32 -310 39 -12 157 54 235 131 41 42 96 145 96 182 0 12 3 22 8 21 4 0
37 -36 75 -79 l67 -79 0 -101 c0 -232 -37 -569 -86 -787 -46 -205 -122 -399
-202 -515 -44 -64 -141 -152 -200 -182 -94 -47 -280 -87 -432 -93 -122 -4
-145 -2 -234 21 -180 46 -396 166 -646 356 -109 83 -117 92 -133 141 -9 29
-15 54 -13 56 1 2 23 0 47 -5 108 -19 240 26 338 114 59 53 70 78 45 105 -24
27 -65 36 -254 59 -309 38 -340 56 -342 194 -1 83 30 158 93 229 62 69 133
109 197 109 57 0 90 -23 121 -86 l24 -48 54 4 c32 3 65 13 80 24 154 115 41
515 -175 621 -125 62 -251 24 -382 -113 -107 -113 -167 -248 -223 -504 -14
-63 -28 -137 -32 -165 l-7 -49 -33 67 c-110 221 -299 380 -593 496 -116 46
-290 93 -432 116 -110 17 -140 19 -140 6 0 -15 295 -282 525 -476 392 -331
588 -514 828 -773 170 -183 320 -388 529 -721 232 -371 328 -632 356 -971 l7
-85 1415 -7 c778 -4 2642 -8 4142 -10 l2727 -3 6 55 c10 85 58 274 100 385 49
133 194 426 296 600 96 165 299 471 424 640 155 211 426 478 840 828 368 312
616 539 603 552 -8 9 -211 -23 -326 -51 -303 -74 -577 -224 -722 -396 -33 -39
-79 -109 -104 -156 l-44 -85 -12 74 c-48 301 -132 518 -248 641 -119 126 -257
169 -377 118 -99 -42 -207 -191 -240 -331 -39 -167 3 -288 111 -318 59 -16 90
-5 103 38 33 112 170 121 286 20 45 -40 97 -117 115 -172 17 -54 14 -164 -6
-195 -32 -48 -107 -70 -342 -97 -161 -18 -215 -31 -238 -56 -16 -18 -16 -22
-1 -53 19 -40 120 -116 192 -144 68 -27 141 -35 195 -23 24 5 46 9 47 7 1 -1
-9 -38 -22 -82 l-25 -79 -99 -83 c-375 -316 -614 -432 -885 -432 -258 0 -495
111 -635 297 -193 256 -287 652 -317 1328 l-6 140 73 83 72 83 17 -55 c22 -70
50 -114 104 -164 56 -51 117 -90 173 -109 41 -14 45 -14 65 3 29 27 21 83 -41
277 -83 262 -86 315 -23 367 132 108 397 57 472 -91 33 -64 25 -105 -31 -165
l-29 -30 23 -45 c57 -108 167 -120 304 -33 135 86 243 256 243 383 0 146 -126
276 -316 326 -124 33 -352 16 -582 -43 l-111 -29 56 71 c101 129 164 289 194
495 15 105 7 361 -16 486 -18 100 -63 276 -73 287 -11 11 -196 -147 -291 -248
-167 -176 -279 -355 -340 -541 -33 -102 -55 -260 -46 -330 7 -56 13 -61 -95
78 -216 277 -420 412 -625 413 -103 1 -177 -32 -230 -102 -101 -131 -99 -400
3 -547 58 -82 144 -108 222 -66 34 18 35 20 32 72 -5 101 53 151 173 150 115
-1 229 -61 292 -155 89 -131 63 -185 -167 -344 -142 -98 -209 -151 -221 -173
-34 -64 39 -104 191 -104 108 0 165 17 234 70 l43 33 7 -109 7 -109 -62 -82
c-208 -274 -410 -492 -571 -613 -322 -244 -530 -258 -837 -59 -203 133 -395
373 -557 694 -158 315 -310 780 -394 1207 l-23 112 26 63 c14 35 33 80 42 102
l16 38 28 -44 c54 -85 158 -146 285 -169 76 -13 111 -7 126 21 16 31 -13 88
-122 238 -120 164 -143 203 -159 262 -11 43 -10 48 15 88 86 137 315 181 455
88 34 -23 50 -42 61 -73 13 -40 13 -46 -8 -95 l-22 -52 28 -29 c77 -83 180
-72 277 30 148 154 194 402 100 544 -29 45 -104 95 -171 115 -77 22 -223 19
-314 -6 -96 -27 -287 -120 -415 -204 -55 -35 -101 -64 -102 -62 -1 1 11 40 27
86 90 264 46 594 -126 945 -57 117 -160 285 -174 285 -5 0 -37 -42 -70 -92z"/>
<path d="M2249 602 c-1 -4 0 -23 0 -42 l1 -35 -25 30 c-14 17 -25 33 -25 38 0
4 -4 7 -8 7 -5 0 -14 -36 -22 -81 l-13 -81 -91 7 -91 7 35 -38 c20 -22 47 -52
60 -68 l25 -28 -65 -59 -65 -59 92 0 92 0 6 -57 c4 -32 10 -69 14 -82 7 -24 8
-24 37 17 16 23 32 42 37 42 4 0 7 -27 7 -60 l0 -60 4140 0 4139 0 3 63 3 62
29 -63 c16 -34 32 -62 36 -62 3 0 17 34 30 75 27 85 25 84 129 60 35 -9 65
-14 67 -12 2 2 -16 32 -41 67 -25 35 -45 67 -45 71 0 4 29 29 65 55 35 27 64
52 65 57 0 4 -28 7 -62 7 -109 0 -108 -1 -108 99 l-1 86 -60 -64 c-56 -58 -63
-62 -85 -52 -22 10 -24 16 -24 86 l0 75 -4140 0 c-2277 0 -4140 -3 -4141 -8z"/>
</g>
</svg>
